<svg width="20" height="23" viewBox="0 0 20 23" fill="none" xmlns="http://www.w3.org/2000/svg">
<path d="M1.64697 18.3647C1.46479 18.3647 1.30562 18.4878 1.25982 18.6641C1.21402 18.8405 1.29316 19.0255 1.45231 19.1141L3.32153 20.1554C3.67866 20.3544 4.0807 20.4588 4.48951 20.4588H15.2771C17.1323 20.4588 18.6451 18.9716 18.6766 17.1166L18.9033 3.7829C18.9182 2.90661 18.2119 2.18823 17.3355 2.18823C17.1174 2.18823 16.9396 2.36287 16.9356 2.58088L16.6926 15.8124C16.6666 17.2295 15.5104 18.3647 14.0931 18.3647H1.64697Z" fill="#E6E6E6" stroke="black" stroke-width="0.8" stroke-linejoin="round"/>
<path d="M4.6516 2.93167C4.65678 2.60404 4.92385 2.34116 5.25152 2.34116H16.0699C17.5219 2.34116 18.6926 3.53046 18.6696 4.98231L18.4675 17.747C18.4451 19.1667 17.2878 20.3059 15.8679 20.3059H4.98617C4.65108 20.3059 4.38094 20.0314 4.38624 19.6964L4.6516 2.93167Z" stroke="black" stroke-width="0.8"/>
<path d="M1.68138 0.990506C1.68657 0.662878 1.95364 0.4 2.28131 0.4H14.2877C15.7398 0.4 16.9104 1.58929 16.8874 3.04115L16.6854 15.8059C16.6629 17.2256 15.5056 18.3647 14.0857 18.3647H1.40638L1.68138 0.990506Z" fill="#C6B165" stroke="black" stroke-width="0.8"/>
<path d="M3.67348 0.647064L3.37646 18.1177" stroke="black" stroke-width="0.8" stroke-linejoin="round"/>
<path d="M15.2562 22V18.4412H12.2861V22L13.7712 20.771L15.2562 22Z" fill="#873F3F" stroke="black" stroke-width="0.8" stroke-linejoin="round"/>
<path d="M6.93994 14.8824L12.8802 14.8824" stroke="black" stroke-width="0.8" stroke-linecap="round"/>
<path d="M6.93994 12.2941H7.53396" stroke="black" stroke-width="0.8" stroke-linecap="round"/>
<path d="M9.31641 12.2941H8.72239" stroke="black" stroke-width="0.8" stroke-linecap="round"/>
<path d="M11.0981 12.2941H12.8802" stroke="black" stroke-width="0.8" stroke-linecap="round"/>
<path d="M13.4744 5.37384C13.4744 4.88174 13.2867 4.40979 12.9526 4.06182C12.6184 3.71385 12.1652 3.51836 11.6926 3.51836C11.6161 3.51833 11.5396 3.52338 11.4637 3.53348C11.3086 3.24667 11.0831 3.00798 10.8102 2.84187C10.5373 2.67577 10.2269 2.58823 9.91081 2.58823C9.59472 2.58823 9.28431 2.67577 9.01142 2.84187C8.73853 3.00798 8.51298 3.24667 8.35788 3.53348C7.91243 3.4732 7.46155 3.59032 7.09548 3.86141C6.72941 4.13249 6.47515 4.53754 6.3836 4.99549C6.29205 5.45343 6.36995 5.93049 6.60172 6.33118C6.83349 6.73187 7.20203 7.02663 7.63357 7.15647V9.05881H12.188V7.15647C12.559 7.04459 12.885 6.81027 13.117 6.48877C13.349 6.16727 13.4744 5.776 13.4744 5.37384Z" fill="white" stroke="black" stroke-width="0.8" stroke-miterlimit="10" stroke-linejoin="round"/>
</svg>
