<svg width="18" height="18" viewBox="0 0 18 18" fill="none" xmlns="http://www.w3.org/2000/svg">
<mask id="path-1-inside-1_218:6" fill="white">
<path fill-rule="evenodd" clip-rule="evenodd" d="M0.424895 7.48217C0.41423 8.0261 0.625608 8.5509 1.0103 8.93559L9.12305 17.0483C9.90409 17.8294 11.1704 17.8294 11.9515 17.0483L17.1035 11.8963C17.8846 11.1152 17.8846 9.84892 17.1035 9.06787L8.99077 0.955123C8.60608 0.570433 8.08127 0.359056 7.53734 0.36972L2.48438 0.468798C1.41052 0.489854 0.545029 1.35534 0.523973 2.4292L0.424895 7.48217ZM6.49356 6.43806C7.19718 5.73444 7.19718 4.59364 6.49356 3.89002C5.78994 3.1864 4.64915 3.1864 3.94552 3.89002C3.2419 4.59364 3.2419 5.73444 3.94553 6.43806C4.64915 7.14168 5.78994 7.14168 6.49356 6.43806Z"/>
</mask>
<path d="M0.424895 7.48217L1.4247 7.50177L1.4247 7.50177L0.424895 7.48217ZM7.53734 0.36972L7.51774 -0.630087L7.51774 -0.630087L7.53734 0.36972ZM2.48438 0.468798L2.46478 -0.53101L2.46478 -0.53101L2.48438 0.468798ZM0.523973 2.4292L-0.475835 2.4096L-0.475835 2.4096L0.523973 2.4292ZM1.7174 8.22848C1.52506 8.03614 1.41937 7.77374 1.4247 7.50177L-0.574912 7.46256C-0.590911 8.27846 -0.273843 9.06566 0.303191 9.6427L1.7174 8.22848ZM9.83015 16.3412L1.7174 8.22848L0.303191 9.6427L8.41594 17.7554L9.83015 16.3412ZM11.2444 16.3412C10.8538 16.7318 10.2207 16.7318 9.83015 16.3412L8.41594 17.7554C9.58751 18.927 11.487 18.927 12.6586 17.7554L11.2444 16.3412ZM16.3964 11.1892L11.2444 16.3412L12.6586 17.7554L17.8106 12.6034L16.3964 11.1892ZM16.3964 9.77498C16.7869 10.1655 16.7869 10.7987 16.3964 11.1892L17.8106 12.6034C18.9822 11.4318 18.9822 9.53234 17.8106 8.36076L16.3964 9.77498ZM8.28366 1.66223L16.3964 9.77498L17.8106 8.36076L9.69787 0.248016L8.28366 1.66223ZM7.55695 1.36953C7.82891 1.3642 8.09131 1.46988 8.28366 1.66223L9.69787 0.248016C9.12084 -0.329019 8.33363 -0.646085 7.51774 -0.630087L7.55695 1.36953ZM2.50398 1.46861L7.55695 1.36953L7.51774 -0.630087L2.46478 -0.53101L2.50398 1.46861ZM1.52378 2.44881C1.53431 1.91188 1.96705 1.47913 2.50398 1.46861L2.46478 -0.53101C0.853986 -0.499426 -0.444251 0.798809 -0.475835 2.4096L1.52378 2.44881ZM1.4247 7.50177L1.52378 2.44881L-0.475835 2.4096L-0.574912 7.46256L1.4247 7.50177ZM5.78646 4.59713C6.09955 4.91023 6.09955 5.41786 5.78646 5.73095L7.20067 7.14517C8.29482 6.05102 8.29481 4.27706 7.20067 3.18292L5.78646 4.59713ZM4.65263 4.59713C4.96573 4.28403 5.47336 4.28403 5.78646 4.59713L7.20067 3.18292C6.10652 2.08877 4.33256 2.08877 3.23842 3.18292L4.65263 4.59713ZM4.65263 5.73095C4.33953 5.41786 4.33953 4.91023 4.65263 4.59713L3.23842 3.18292C2.14427 4.27706 2.14427 6.05102 3.23842 7.14517L4.65263 5.73095ZM5.78646 5.73095C5.47336 6.04405 4.96573 6.04405 4.65263 5.73095L3.23842 7.14517C4.33256 8.23931 6.10652 8.23931 7.20067 7.14517L5.78646 5.73095Z" fill="#88773A" mask="url(#path-1-inside-1_218:6)"/>
</svg>
